<svg width="312" height="353" viewBox="0 0 312 353" fill="none" xmlns="http://www.w3.org/2000/svg">
<g clip-path="url(#clip0_7_27)">
<path d="M214.051 152.965C214.051 152.305 214.051 151.618 214.051 150.878C214.078 151.618 214.051 152.305 214.051 152.965Z" fill="#0D1821"/>
<path d="M216.637 134.501C215.239 139.326 214.424 144.301 214.21 149.32C214.424 144.301 215.239 139.326 216.637 134.501Z" fill="#0D1821"/>
<path d="M192.335 204.182L200.858 193.933C201.666 193.868 202.478 193.868 203.286 193.933C208.324 194.447 213.414 194.026 218.3 192.692C221.018 192.156 223.595 191.06 225.866 189.473C228.138 187.886 230.054 185.842 231.493 183.473C234.449 178.481 238.09 173.726 239.251 167.783C239.818 164.977 241.444 162.499 243.79 160.862C247.827 157.851 251.706 154.523 255.611 151.353C258.124 149.276 260.135 146.658 261.495 143.693C263.663 139.645 264.84 135.141 264.932 130.55C265.024 125.958 264.027 121.41 262.023 117.279C260.808 114.946 259.469 112.68 258.012 110.49C252.497 101.774 248.671 92.7136 250.307 81.9102C251.389 75.0322 250.076 67.991 246.587 61.9674C243.174 55.9321 238.124 50.9869 232.021 47.7037C226.295 44.6473 221.938 39.5314 219.83 33.3872C216.275 23.6087 209.982 15.0621 201.702 8.76913C197.418 5.3814 192.419 3.01474 187.084 1.8486C172.281 -1.18904 157.715 -0.792823 143.862 5.96922C141.012 7.48506 137.696 7.87168 134.574 7.05221C133.413 6.73524 132.146 6.70882 131.012 6.33902C124.954 4.65563 118.651 4.03893 112.382 4.51644C107.737 4.66207 103.132 5.42599 98.6876 6.78807C90.4057 9.11379 83.3834 14.6329 79.1612 22.1347C76.6785 26.7668 74.4842 31.5481 72.5909 36.4513C69.2741 45.4195 63.5044 53.273 55.9407 59.1147C50.6633 63.1561 45.7289 67.6993 40.7945 72.1898C37.4119 75.1303 34.8329 78.8846 33.3006 83.0988C29.6856 93.6645 29.5273 104.23 36.6254 113.713C37.2323 114.532 37.7864 115.403 38.3669 116.354C40.2162 119.018 41.3933 122.09 41.7972 125.309C42.2772 128.877 41.86 132.509 40.5834 135.875C38.2076 142.567 36.9765 149.613 36.942 156.715C36.7469 160.554 37.2201 164.397 38.3405 168.073C43.3541 180.911 54.1727 187.303 67.7093 184.926C69.8994 184.556 72.0367 183.896 74.1741 183.341C77.0563 182.533 80.1051 182.533 82.9874 183.341C84.1308 185.114 85.1449 186.968 86.0219 188.888C86.8924 191.388 88.3953 193.619 90.3838 195.364C92.3723 197.109 94.7787 198.309 97.3683 198.846C100.878 199.638 104.493 199.982 108.583 200.616C112.795 206.108 118.504 210.264 125.022 212.581M125.022 212.581C125.022 226.713 126.183 240.422 125.233 254.131C117.772 255.787 110.82 259.222 104.968 264.142C104.327 264.639 103.59 264.999 102.804 265.199C93.9907 268.104 85.283 271.485 76.417 273.73C67.3706 275.844 58.4758 278.562 49.7925 281.866C37.8128 286.621 26.7039 292.432 18.5767 302.997C15.4631 306.72 12.7315 310.746 10.4231 315.016C7.91631 319.744 5.27761 324.34 3.00832 329.015C1.91888 331.183 0.984203 333.425 0.2113 335.725C0.0531519 336.105 -0.0241042 336.513 -0.0155315 336.925C-0.00695881 337.336 0.0872542 337.741 0.261087 338.114C0.43492 338.487 0.684549 338.819 0.994022 339.09C1.3035 339.361 1.66601 339.564 2.05839 339.687C5.97459 341.801 10.03 343.645 14.1964 345.207C28.7643 350.178 44.0334 352.782 59.4238 352.92C68.9495 352.788 78.4488 352.392 87.9481 351.864C97.4474 351.336 107.316 350.622 116.974 349.724C124.23 349.064 131.434 347.928 138.664 347.083C157.396 344.969 176.348 345.951 194.763 349.988C207.222 352.793 220.042 353.631 232.76 352.471L250.255 350.675C263.368 349.785 276.429 348.234 289.387 346.026C295.924 344.736 302.242 342.512 308.148 339.423C309.621 338.908 310.829 337.828 311.507 336.421C312.185 335.014 312.277 333.396 311.763 331.921C310.918 327.748 309.784 323.68 308.807 319.533C305.826 306.748 297.962 297.53 287.17 290.688C282.032 287.465 276.65 284.648 271.074 282.262C258.83 276.979 246.587 271.697 234.765 265.489C226.242 260.999 217.64 256.561 207.587 256.535C206.771 256.464 205.98 256.221 205.265 255.822C202.626 254.554 199.829 253.18 197.217 251.992C193.549 239.55 193.523 226.924 192.388 214.483C192.071 211.076 192.388 207.616 192.388 204.208M43.486 87.1666C43.6179 88.2232 43.8554 88.7251 43.6971 88.9892C39.6599 95.0381 40.6098 101.219 43.143 107.479C43.5508 108.689 43.877 109.924 44.1193 111.177C35.2796 104.574 35.1477 93.2947 43.486 87.1666ZM51.6132 119.022C47.8769 114.979 45.2259 110.053 43.9082 104.706C43.6069 102.976 43.7411 101.198 44.2985 99.5333C44.856 97.8684 45.8192 96.3688 47.101 95.1701C47.3926 96.5504 47.5254 97.9595 47.4968 99.37C46.9825 102.765 47.5649 106.235 49.1592 109.275C50.1537 111.456 51.0345 113.686 51.7979 115.958C51.8793 117.001 51.8171 118.049 51.6132 119.075V119.022ZM91.4312 279.489C82.6707 282.553 73.9102 285.59 65.0442 288.39C60.057 289.949 54.8588 290.873 49.8189 292.405C44.2946 293.688 39.0706 296.029 34.4352 299.299C33.515 299.777 32.5404 300.14 31.5327 300.382C31.9021 299.167 31.8757 298.216 32.2979 297.952C34.7917 296.27 37.3821 294.735 40.0557 293.356C47.4968 289.896 55.4129 288.628 63.329 286.489C73.7181 283.897 83.8488 280.36 93.5949 275.923C94.1288 275.764 94.6971 275.764 95.2309 275.923C95.2309 275.923 95.4156 276.213 95.574 276.451C94.9934 278.644 93.0144 278.987 91.4312 279.542V279.489ZM240.914 92.4495C241.332 90.2866 241.605 88.0982 241.732 85.8987C241.732 83.8913 241.732 81.8574 241.732 79.8499C241.732 77.8424 239.858 75.8613 241.732 73.5897C244.962 79.0264 245.911 85.5222 244.37 91.6571C244.132 93.2867 243.535 94.8429 242.622 96.2133C241.709 97.5838 240.504 98.7341 239.093 99.5813C239.805 96.4116 240.518 94.4041 240.914 92.4495ZM232.575 76.6009C234.063 78.9975 235.326 81.5264 236.349 84.1554C237.958 89.0949 238.301 94.0872 234.739 98.4984C234.185 99.0457 233.575 99.5327 232.918 99.9511L231.836 99.3964C232.006 98.2787 232.288 97.1811 232.681 96.1211C233.825 93.5239 234.327 90.6887 234.143 87.8561C233.96 85.0235 233.096 82.277 231.625 79.8499C230.992 78.6348 230.491 77.2085 229.963 76.2047C231.309 75.0689 232.206 75.7557 232.575 76.6009ZM214.104 152.885C214.104 152.225 214.104 151.538 214.104 150.799C214.104 150.561 214.104 150.297 214.104 150.059C214.104 149.821 214.104 149.504 214.104 149.24C214.319 144.221 215.134 139.246 216.532 134.422C218.485 135.188 219.171 137.486 220.516 139.018C221.205 139.784 222.137 140.288 223.155 140.444C223.371 139.301 223.371 138.127 223.155 136.984C222.163 134.988 220.912 133.132 219.435 131.463C217.784 129.798 216.64 127.697 216.135 125.405C215.631 123.114 215.787 120.726 216.585 118.52C218.005 117.427 219.485 116.413 221.018 115.483C221.677 115.003 222.436 114.678 223.238 114.53C224.039 114.383 224.864 114.416 225.651 114.629C226.438 114.842 227.167 115.228 227.785 115.76C228.404 116.291 228.895 116.955 229.224 117.702C231.639 121.476 232.996 125.831 233.154 130.31C233.312 134.79 232.265 139.229 230.121 143.165C227.877 148.439 223.759 152.693 218.564 155.104C217.186 155.911 215.544 156.139 213.999 155.738C214.078 155.025 214.052 154.074 214.052 152.965L214.104 152.885ZM201.94 14.2633C207.719 18.2519 211.993 28.3157 210.278 35.3947C209.251 31.6174 207.955 27.9188 206.399 24.3271C204.3 20.7943 201.954 17.4137 199.38 14.2105C200.33 14.2105 201.359 13.8671 201.94 14.2633ZM193.496 12.5992C198.839 15.9905 202.74 21.2405 204.447 27.3384C204.447 27.6289 204.183 28.0251 203.945 28.527C203.42 28.3729 202.928 28.122 202.494 27.7874C200.251 24.9347 198.061 22.0555 195.818 19.2028C194.658 17.5098 193.069 16.1555 191.215 15.2784C189.361 14.4013 187.307 14.0327 185.263 14.2105C184.102 14.2105 182.941 14.2105 181.807 14.2105C182.457 13.321 183.279 12.5716 184.225 12.0069C185.17 11.4422 186.219 11.0737 187.31 10.9233C188.401 10.773 189.511 10.8439 190.573 11.1318C191.636 11.4197 192.63 11.9187 193.496 12.5992ZM173.706 43.3718V43.9265C173.549 43.9541 173.388 43.9541 173.231 43.9265C173.231 43.9265 173.231 43.7152 173.231 43.5831L173.706 43.3718ZM100.719 19.599C109.031 14.3161 117.739 10.4861 127.924 11.6747C130.34 11.8499 132.694 12.5193 134.841 13.6415C136.987 14.7637 138.881 16.3149 140.405 18.199C140.907 18.8065 140.801 19.8895 141.092 21.4744C139.746 20.5499 139.06 20.1801 138.453 19.6782C135.043 16.7905 130.729 15.192 126.262 15.1614C117.978 14.6459 109.74 16.7329 102.698 21.131C102.181 21.4553 101.604 21.6737 101.002 21.7734C100.399 21.8732 99.7833 21.8523 99.189 21.7121C99.6903 20.8933 100.033 19.9159 100.719 19.4669V19.599ZM124.943 22.4517C120.378 22.1347 116.393 24.063 111.749 26.4931C111.934 25.2252 111.749 24.3007 112.145 23.8517C115.603 21.0869 119.791 19.3919 124.197 18.9743C128.602 18.5567 133.034 19.4348 136.949 21.5008C137.371 21.7649 137.556 22.4517 138.136 23.3498C133.545 22.98 129.297 22.6102 124.943 22.3196V22.4517ZM133.202 26.1497C129.483 27.2886 125.836 28.6469 122.278 30.2175C118.553 31.7304 115.575 34.6542 113.992 38.3531C112.382 38.3531 112.039 37.6135 112.462 36.4513C113.865 32.3396 116.824 28.9431 120.702 26.9921C124.58 25.041 129.069 24.6912 133.202 26.0176V26.1497ZM90.666 162.632C89.0648 162.857 87.434 162.738 85.8824 162.283C84.3308 161.827 82.894 161.046 81.668 159.991C76.8315 156.798 73.1419 152.141 71.1384 146.699C69.135 141.258 68.9227 135.317 70.5327 129.746C71.0236 128.003 71.7801 126.346 72.7756 124.833C73.5512 123.683 74.668 122.805 75.9684 122.324C78.0505 122.069 80.1577 122.525 81.9488 123.618C83.7398 124.711 85.1099 126.377 85.8371 128.346C86.2445 129.807 86.3089 131.342 86.025 132.831C85.7412 134.32 85.117 135.723 84.2011 136.931C82.4268 139.409 80.9146 142.065 79.689 144.855C78.9765 146.255 79.1348 147.497 81.5625 148.078C82.961 145.912 84.4386 143.614 86.1538 140.893C88.2648 143.033 87.6051 145.621 88.2911 147.734C89.0481 150.238 89.5954 152.8 89.9271 155.395C90.2702 157.719 91.7478 159.938 90.666 162.632ZM125.286 207.404C119.353 205.265 114.277 201.251 110.826 195.967C103.934 185.934 98.9512 174.713 96.1281 162.87C92.1023 146.129 89.6028 129.057 88.6606 111.864C88.2384 105.181 87.4731 98.6568 86.8926 91.8948C86.8926 90.7061 86.8926 89.4911 86.7079 88.0911L90.8243 86.744C100.746 83.6271 110.166 79.4801 117.633 71.952C120.151 69.3271 122.405 66.4606 124.362 63.3938C128.347 57.2921 132.041 51.0055 136.052 44.4284L146.079 42.3945L143.229 40.07C146.659 36.2664 150.908 39.6474 155.129 39.3832C154.127 36.5833 151.435 36.372 149.641 34.7872C150.828 34.1643 152.18 33.9263 153.508 34.1061C154.837 34.286 156.076 34.8747 157.056 35.7909C158.346 36.761 159.417 37.9945 160.196 39.4097C162.333 43.7944 165.473 45.934 170.276 44.2435L171.12 46.7C173.31 47.5452 176.397 45.5642 178.139 48.5226L174.841 49.6848L179.432 52.8281C180.857 57.6436 183.215 62.1313 186.372 66.0352C189.614 70.1704 193.275 73.959 197.296 77.3405C201.545 80.8768 206.463 83.5181 211.756 85.1063V91.1288C211.756 103.279 211.914 115.456 211.545 127.607C211.348 142.798 209.148 157.897 205.001 172.511C202.549 181.312 198.389 189.543 192.757 196.733C190.726 199.274 188.097 201.27 185.105 202.544C170.485 208.644 154.655 211.284 138.849 210.257C134.214 209.968 129.645 209.007 125.286 207.404ZM134.785 298.481C130.827 298.481 129.138 296.315 130.035 292.802C130.188 292.014 130.578 291.293 131.154 290.735C131.73 290.178 132.463 289.811 133.255 289.685C134.114 289.41 135.04 289.418 135.894 289.708C136.749 289.998 137.489 290.554 138.004 291.296C138.328 291.787 138.603 292.309 138.822 292.854C140.3 296.552 138.875 298.481 134.785 298.481ZM113.675 272.568C112.037 271.849 110.516 270.887 109.163 269.715C108.662 269.266 108.873 268.025 108.583 265.965C114.214 270.016 120.662 272.784 127.476 274.074C132.331 275.342 137.16 276.715 141.962 278.036C142.543 278.194 142.912 279.013 143.968 280.149C142.73 280.261 141.485 280.261 140.247 280.149C131.207 278.398 122.341 275.843 113.755 272.515L113.675 272.568ZM146.105 331.498C142.437 331.498 140.485 329.597 140.828 326.427C141.171 323.257 142.965 321.884 146.263 322.57C147.172 322.608 148.053 322.894 148.811 323.397C149.569 323.9 150.176 324.6 150.564 325.423C150.869 326.123 150.985 326.891 150.901 327.649C150.816 328.408 150.534 329.131 150.082 329.746C149.631 330.361 149.026 330.847 148.328 331.154C147.63 331.462 146.863 331.581 146.105 331.498ZM163.679 329.914C162.571 328.883 161.779 328.461 161.621 327.88C160.882 325.397 160.433 322.808 159.668 320.299C157.051 311.649 153.705 303.236 149.667 295.152C149.245 294.281 148.955 293.356 148.612 292.511L149.588 291.666C150.142 292.115 150.881 292.432 151.198 293.013C152.614 295.439 153.891 297.943 155.024 300.514C157.161 305.507 159.219 310.526 161.093 315.597C162.326 318.998 163.375 322.463 164.233 325.978C164.236 327.315 164.022 328.645 163.6 329.914H163.679ZM163.837 283.847C162.755 289.13 161.383 294.096 160.09 299.194C159.651 300.381 159.13 301.537 158.533 302.654C157.293 300.013 156.29 298.058 155.446 296.051C153.256 290.768 151.013 285.485 149.113 280.202C148.598 278.558 147.704 277.058 146.503 275.824C145.302 274.59 143.828 273.655 142.2 273.097C138.4 271.749 134.548 270.455 130.642 269.478C125.718 268.579 120.941 267.006 116.446 264.802C117.248 263.952 118.132 263.182 119.085 262.504C122.621 260.55 126.209 258.701 129.64 256.905C132.278 251.437 129.64 245.784 131.038 240.528C136.315 239.154 141.593 238.177 146.738 236.328C151.821 234.341 156.744 231.965 161.462 229.222C166.233 226.551 170.817 223.559 175.184 220.268C179.511 216.993 183.39 213.163 187.612 209.438C188.852 209.729 188.272 210.944 188.298 211.789C188.298 215.857 188.298 219.898 188.298 223.94C188.629 234.323 190.08 244.641 192.625 254.712L200.541 259.203C199.486 259.969 198.826 260.55 198.061 260.999C193.549 263.64 189.037 266.282 184.445 268.923C179.965 271.665 175.291 274.075 170.46 276.134C168.73 276.643 167.185 277.642 166.01 279.01C164.834 280.379 164.08 282.059 163.837 283.847ZM209.935 264.274C200.285 270.464 190.256 276.039 179.907 280.968C178.198 282.002 176.302 282.688 174.328 282.987C172.354 283.287 170.34 283.193 168.402 282.711C169.168 281.883 170.058 281.179 171.041 280.625C177.971 277.91 184.545 274.362 190.62 270.059C195.251 266.815 200.387 264.361 205.819 262.795C208.162 262.244 210.531 261.812 212.917 261.501C211.986 262.491 210.99 263.418 209.935 264.274ZM289.096 300.911C287.381 299.854 285.851 298.454 284.083 297.503C280.088 295.158 275.945 293.076 271.681 291.27C262.076 287.624 252.498 283.874 242.655 280.968C238.86 279.589 235.158 277.966 231.573 276.108C228.934 274.893 225.979 273.783 223.234 272.515C222.627 272.225 222.232 271.538 221.651 270.931C223.604 269.715 225.081 270.64 226.533 271.248C230.438 272.859 234.29 274.629 238.222 276.24C241.732 277.719 245.294 279.145 248.777 280.466C258.039 283.874 267.485 286.885 276.615 290.662C281.308 292.995 285.808 295.697 290.073 298.745C290.653 299.115 290.97 299.907 291.893 301.228C290.257 301.122 289.545 301.122 289.017 300.911H289.096Z" fill="#0D1821"/>
<path d="M127.265 110.623L137.212 112.789C136.606 111.6 136.474 110.94 136.078 110.649C131.063 106.597 124.71 104.578 118.278 104.994C111.846 105.41 105.805 108.23 101.352 112.895C100.912 113.301 100.592 113.823 100.429 114.4C100.371 114.68 100.374 114.968 100.438 115.246C100.501 115.524 100.624 115.785 100.798 116.011C101.004 116.214 101.255 116.363 101.531 116.446C101.807 116.529 102.099 116.543 102.382 116.487C103.489 115.945 104.549 115.308 105.548 114.585C106.815 113.766 107.896 112.472 109.717 112.789C112.265 111.07 115.182 109.977 118.232 109.601C121.281 109.224 124.376 109.575 127.265 110.623Z" fill="#0D1821"/>
<path d="M108.714 128.479L105.548 127.026C105.047 125.705 105.838 125.177 106.867 124.834C107.24 124.67 107.65 124.606 108.055 124.649C114.15 126.075 120.114 124.649 126.13 123.989C127.449 123.989 128.769 123.989 130.141 123.989L130.299 125.415L124.679 127.66L108.714 128.479Z" fill="#0D1821"/>
<path d="M165.658 89.8085C166.423 89.8085 172.835 87.0349 173.574 86.9557C181.168 85.9805 188.876 86.4012 196.319 88.1972C197.111 88.4349 199.591 88.4349 201.597 88.7519C197.622 84.8683 192.451 82.4475 186.926 81.8842C182.267 81.1439 177.52 81.1439 172.861 81.8842C171.516 82.1219 164.549 83.7596 163.204 84.2086C163.204 84.7369 161.145 89.016 161.145 89.4915C162.639 89.7151 164.148 89.8211 165.658 89.8085Z" fill="#0D1821"/>
<path d="M132.12 91.4726C131.355 91.4726 124.652 89.6764 123.834 89.7028C116.176 89.7637 108.593 91.2228 101.458 94.0083C100.719 94.3517 98.2389 94.6687 96.339 95.2762C99.7655 90.8883 104.573 87.7886 109.981 86.4803C114.537 85.1428 119.273 84.5278 124.019 84.6577C125.391 84.6577 132.516 85.4237 133.914 85.6878C133.914 86.1897 136.553 90.1518 136.553 90.6537C135.099 91.0413 133.616 91.3151 132.12 91.4726Z" fill="#0D1821"/>
<path d="M147.767 176.209C148.682 175.897 149.566 175.499 150.406 175.021C144.389 172.728 137.904 171.939 131.513 172.723C130.589 174.942 132.093 175.681 133.729 176.051C138.346 177.084 143.128 177.138 147.767 176.209Z" fill="#0D1821"/>
<path d="M161.119 173.991C165.077 172.67 169.352 171.904 172.861 168.1C171.779 167.413 171.173 166.78 170.856 166.912C166.687 168.364 162.57 169.923 158.454 171.561C157.873 171.798 157.478 172.538 156.264 173.806C157.865 174.103 159.5 174.165 161.119 173.991Z" fill="#0D1821"/>
<path d="M147.767 182.258C147.187 182.258 146.659 183.13 145.26 184.345C147.717 185.166 150.33 185.404 152.894 185.042C155.458 184.68 157.904 183.727 160.037 182.258C155.393 180.515 151.541 181.836 147.767 182.258Z" fill="#0D1821"/>
<path d="M186.398 108.483L196.398 110.649C195.765 109.434 195.66 108.8 195.264 108.483C190.244 104.426 183.883 102.408 177.445 102.829C171.007 103.25 164.963 106.079 160.512 110.755C160.08 111.169 159.762 111.688 159.589 112.261C159.543 112.542 159.554 112.83 159.622 113.107C159.69 113.384 159.813 113.644 159.984 113.872C160.19 114.074 160.441 114.223 160.717 114.306C160.993 114.389 161.285 114.403 161.568 114.347C162.618 113.777 163.631 113.142 164.602 112.446C165.869 111.627 166.924 110.332 168.771 110.623C168.877 110.623 175.368 105.155 186.398 108.483Z" fill="#0D1821"/>
<path d="M167.874 126.339L164.549 124.887C164.048 123.566 164.84 123.038 165.869 122.694C166.242 122.533 166.651 122.469 167.056 122.509C173.152 123.936 179.115 122.377 185.131 121.849C186.477 121.717 187.77 121.849 189.142 121.849L189.3 123.275L183.706 125.52L167.874 126.339Z" fill="#0D1821"/>
<path d="M147.767 93.5065C147.618 98.2112 147.195 102.903 146.501 107.559C145.524 117.094 143.493 129.324 143.862 138.754C143.862 141.026 144.258 146.995 144.363 149.32L141.725 146.335C142.936 146.699 144.17 146.982 145.419 147.18C149.232 148.033 153.211 147.757 156.871 146.388L157.451 147.233C152.643 150.697 146.828 152.479 140.907 152.305L138.268 151.856C138.426 148.316 138.69 142.294 138.875 138.648C140.079 128.02 142.073 117.495 144.838 107.163L146.448 100.295C147.052 98.0672 147.493 95.7983 147.767 93.5065Z" fill="#0D1821"/>
</g>
<defs>
<clipPath id="clip0_7_27">
<rect width="312" height="353" fill="white"/>
</clipPath>
</defs>
</svg>
