<?xml version="1.0" encoding="utf-8"?>
<!-- Generator: Adobe Illustrator 26.0.1, SVG Export Plug-In . SVG Version: 6.00 Build 0)  -->
<svg version="1.1" xmlns="http://www.w3.org/2000/svg" xmlns:xlink="http://www.w3.org/1999/xlink" x="0px" y="0px"
	 viewBox="0 0 724 800" style="enable-background:new 0 0 724 800;" xml:space="preserve">
<style type="text/css">
	.st0{fill:#0D1821;}
	.st1{fill:#FFFFFF;}
</style>
<g id="Torso">
	<g>
		<path class="st0" d="M434.5,429.9l11.7-1.5c0,7.9-0.6,42.1,0.1,50c2.6,28.9,2.6,58.2,11.2,87c6.1,2.9,12.4,5.9,18.8,8.9
			c1.7,0.8,3.6,1.7,5.3,1.7c23.4,0,43.4,10.4,63.2,20.8c27.5,14.5,55.8,26.7,84.4,38.9c12.9,5.6,25.6,12.1,37.4,19.6
			c25,15.9,43.3,37.3,50.3,66.9c2.2,9.6,4.9,19.1,6.8,28.8c1.8,8.7-0.3,13.1-8.3,17.3c-13.7,7.3-28.3,12.3-43.6,15.4
			c-30,6.2-60.6,7.7-90.9,10.9c-13.5,1.3-27.1,2.8-40.6,4.2c-29.8,3-59.2,0.4-88.3-5.8c-43.2-9.2-86.5-11.8-130.3-6.7
			c-16.8,2-33.5,4.6-50.3,6.1c-22.4,2.1-44.9,3.7-67.5,5c-22,1.2-44.1,2.1-66.2,2.5c-36,0.4-70.9-7.1-105.1-17.9
			c-9.8-3.1-18.9-8.3-28.2-12.8c-4.2-2-5.7-5-4.3-9.2c1.7-5.3,3.9-10.5,6.5-15.6c5.5-10.9,11.5-21.5,16.9-32.4
			c5.1-10.2,12-18.9,18.9-27.9c18.9-24.4,44.8-37.9,72.6-48.9c20.1-8,40.8-13.6,61.9-18.9c20.8-5.2,41.1-13.1,61.6-19.8
			c1.8-0.6,3.7-1.2,5-2.5c13-12.3,29.1-18.5,46.8-23.6c2.2-31.8-0.2-104.1-0.5-136.9l13.2-1.7"/>
		<path class="st1" d="M301.8,431.8c0.6,29.7,6.6,136.9,1.8,147.1c-7.6,4-15.6,8.1-23.5,12.5c-2,1.2-3.6,3.2-5.6,5.1
			c10.5,6,21.5,4.4,32,7.1c8.8,2.3,17.3,5.1,25.9,8.1c7.6,2.7,16.6,9.3,19.4,17.3c4.3,11.9,9.7,16.5,14.7,28.2
			c1.8,4.5,4.1,8.8,6.9,14.7c1.7-3.7,2.9-5.6,3.4-7.7c2.9-11.4,3.5-15,5.9-26.5c1.8-8.6,3.9-16.1,12.8-19.4
			c10.9-4,21-10.5,31.3-16.1c10.2-5.7,20.1-8.3,30.2-14.3c1.7-1,3.2-2.3,5.6-4c-6.4-3.6-11.5-6.4-17.8-10c-5-22.8-9.4-45.4-9.5-68.7
			c-0.1-9.1-0.1-18.1-0.2-27.2c-0.1-1.2-0.5-39-1.5-48.1"/>
		<path class="st0" d="M303.7,551.8l-3.6-99.2l162.1-5C462.2,447.6,434.3,531.4,303.7,551.8z"/>
		<path class="st1" d="M216.5,631.4c-20.3,7.1-40.7,14.2-61.3,20.7c-11.6,3.7-23.7,5.8-35.4,9.3c-12.6,3.8-25.2,7.6-35.7,16
			c-1.3,1.1-3.3,1.3-6.7,2.5c0.8-2.8,0.8-5,1.7-5.6c5.9-3.8,11.8-7.7,18.1-10.7c17.1-8.2,35.8-11.1,53.9-16.1
			c24-6.6,47.9-13.5,70.3-24.5c1-0.5,2.5-0.1,3.8,0.1c0.3,0,0.5,0.7,0.8,1.2C225,629.3,220.2,630.1,216.5,631.4z"/>
		<path class="st1" d="M317.2,675.2c-9.2-0.3-13.1-5-11.1-13.2c1-4,3.5-6.4,7.5-7.2c4.4-0.9,8.3-0.2,11.1,3.7
			c0.8,1.1,1.4,2.4,1.9,3.7C330.1,670.9,326.7,675.5,317.2,675.2z"/>
		<path class="st1" d="M268.4,615.1c-3.8-1.5-7.4-3.9-10.5-6.6c-1.2-1-0.7-3.9-1.4-8.7c15,11.6,29.5,15.1,43.9,18.9
			c11.2,2.9,22.5,5.9,33.6,9.2c1.3,0.4,2.2,2.3,4.7,4.9c-4.2,0-6.5,0.4-8.6-0.1C309.1,628.2,288.3,623.2,268.4,615.1z"/>
		<path class="st1" d="M343.5,752c-8.5,0-13-4.4-12.1-11.7c0.9-7.7,4.9-10.6,12.6-9c4.2,0.9,8.3,2.1,10,6.7
			C356.8,745.5,352,752,343.5,752z"/>
		<path class="st1" d="M384.3,748.3c-2.5-2.4-4.4-3.4-4.8-4.7c-1.7-5.8-2.8-11.8-4.5-17.6c-6.2-20.1-13.7-39.6-23.2-58.4
			c-1-2-1.7-4.1-2.5-6.2c0.8-0.7,1.5-1.3,2.3-2c1.3,1,3,1.8,3.7,3.1c3.2,5.7,6.3,11.5,8.9,17.4c4.9,11.6,9.7,23.2,14.1,35
			c2.9,7.8,5.2,15.9,7.3,24C386.2,741.3,385,744,384.3,748.3z"/>
		<path class="st1" d="M491.8,596c-22.3,14.6-45.8,27-69.7,38.7c-8,3.9-16.2,7-26.8,4.1c2-1.7,3.7-4,5.9-4.9
			c16.3-6.1,31.2-14.8,45.4-24.7c10.8-7.5,22.7-13.1,35.3-16.7c4.3-1.2,8.9-1.6,16.7-3C494.8,593.3,493.5,594.9,491.8,596z"/>
		<path class="st1" d="M675.6,681c-4-2.5-7.5-5.7-11.6-7.9c-9.5-5.1-18.8-10.7-28.8-14.5c-22.4-8.4-44.6-17.2-67.6-23.9
			c-8.9-2.6-17.2-7.5-25.7-11.2c-6.4-2.8-13-5.4-19.4-8.4c-1.4-0.6-2.3-2.3-3.7-3.7c4.5-2.9,8-0.7,11.3,0.7
			c9.1,3.8,18.1,7.9,27.1,11.6c8.2,3.4,16.4,6.7,24.8,9.8c21.6,7.9,43.5,14.9,64.7,23.7c11.1,4.6,21,12.3,31.3,18.7
			c1.4,0.8,2.1,2.7,4.3,5.8C678.7,681.4,676.8,681.8,675.6,681z"/>
	</g>
</g>
<g id="hairR">
	<g>
		<path class="st0" d="M434.4,98.1c4.6,7.6,112.1-42.4,148.2,65.3c15.6,46.5,0,73.1,0,73.1c56.2,152-52.7,147.6-52.7,147.6
			c-5.6,109.9-125.8,99.3-184.4,52.5L434.4,98.1z"/>
		<path class="st1" d="M540.6,139.8c24.4,11.5,30.6,45.7,18.1,68.1C558,183.6,555.4,160.6,540.6,139.8L540.6,139.8z"/>
		<path class="st1" d="M575.1,338.7c-4.1,18.3-25.3,28.8-43,26.1C549,360.5,564.9,353.6,575.1,338.7L575.1,338.7z"/>
		<path class="st1" d="M524.4,148c12.6,8.2,22.7,25.6,16.9,40.6C539.1,173.4,531.3,161.6,524.4,148L524.4,148z"/>
	</g>
</g>
<g id="hairL">
	<g>
		<path class="st0" d="M525.7,133.1c14.1-26.3-28.9-181.6-185.9-117.9c0,0-124.1-58.7-176.7,96.4c0,0,1.8,21.3-35.8,47
			c0,0-63.2,60.6,3.9,126.4c0,0-47.6,103.7,53.5,136.1c0,0,24.3,69.8,92.5,65.5c26-1.6,42.5-61,80.1-31L525.7,133.1z"/>
		<path class="st1" d="M401.3,28.1c30.6-10.3,63.6,3.4,76.8,33.1c-5.6-5.1-11.1-9.8-16.8-14.2C444.3,32.4,422.5,30.1,401.3,28.1
			L401.3,28.1z"/>
		<path class="st1" d="M480.2,40.9c18.9,7.8,28.2,31.4,25.3,50.7C498.8,73.4,493,56.1,480.2,40.9L480.2,40.9z"/>
		<path class="st1" d="M329.1,37.2c-34.5-5.1-68.1,8.1-92.8,32c2.4-3.6,5-7.2,7.8-10.6C264.3,35.1,300.1,24.9,329.1,37.2L329.1,37.2
			z"/>
		<path class="st1" d="M334,53.3c-18.2,1.5-38.9,2.1-51.7,17.1C288.1,49.3,316.4,45.6,334,53.3L334,53.3z"/>
		<path class="st1" d="M340.3,72c-10.4,4.2-19,5.5-30.2,6.4C317.3,69.7,330.1,67.6,340.3,72L340.3,72z"/>
		<path class="st1" d="M153.2,192c-16.8,6.1-4.4,28.2-1.2,40.2c0.9,2.5,3.1,9,3.8,11.5c0.2,0.6,0.7,2.4,0.8,3
			c-0.1,0.2,0.3,0.3-0.2,0.6c-0.3-0.5-0.3-0.5,0.1-0.2c-0.3,0.2-0.2-0.1-0.4-0.2c-0.4-0.4-1.5-1.9-1.9-2.4
			c-8.7-12.2-16.8-26.9-14.3-42.6C141,195.8,147.2,190.9,153.2,192L153.2,192z"/>
		<path class="st1" d="M144.1,183.8c-17.9,8.8-14.8,26.8-14,43.6c0.2,5.8,0.5,11.6,0.1,17.5c-2.1-5.5-3.7-11.2-4.9-16.9
			C121.3,210.8,121.5,185.9,144.1,183.8L144.1,183.8z"/>
	</g>
</g>
<g id="face">
	<g>
		<path class="st1" d="M477.7,400.4c-15.4,58.2-67.7,99.7-124.4,99.1c-42.5-0.6-114.5-49.5-123.1-113.3
			c-16.7-124-15.4-180.5-15.3-183.4c0.2-2.9,5.9-64.7,45.5-86.7c3.7-2.1,7.2-4.1,10.5-5.9c27.1-15.4,42.1-23.9,88.9-22.7
			c68.2,1.8,111.1,46.1,111.7,46.7C524.1,185.4,478.1,398.5,477.7,400.4z"/>
		<path class="st0" d="M480.3,125.5c-1.8-2-46.7-48.4-120.1-50.4c-50.3-1.3-67.2,8.3-95.3,24.3c-3.3,1.8-6.7,3.8-10.4,5.9
			c-46.2,25.6-51.6,93.7-51.8,96.6v0.2c-0.1,2.3-1.9,57.6,15.3,185.6c9.6,71,87.4,123.4,135.2,124c0.6,0,1.1,0.1,1.7,0.1
			c61.5,0,118-45.3,134.7-108.5C491.5,394.3,537.5,181.4,480.3,125.5z M353.3,499.5c-42.5-0.6-114.5-49.5-123.1-113.3
			c-16.7-124-15.4-180.5-15.3-183.4c0.2-2.9,5.9-64.7,45.5-86.7c3.7-2.1,7.2-4.1,10.5-5.9c27.1-15.4,42.1-23.9,88.9-22.7
			c68.2,1.8,111.1,46.1,111.7,46.7c52.5,51.3,6.5,264.4,6.1,266.3C462.2,458.6,410,500.1,353.3,499.5z"/>
	</g>
</g>
<g id="fringe">
	<g>
		<path class="st0" d="M367.3,115.6l-22.9,6.2c0,0-25.5,106.5-131,122.2s-29-87-29-87S336,52.4,353.4,79.1
			C370.9,105.8,367.3,115.6,367.3,115.6z"/>
		<path class="st0" d="M361.8,114.1l32.5,5.3c0,0-8.4-11.2-12.5-11c-4.1,0.2,11.3-10.3,26.4,15.3c8.1,13.7,21,7.8,21,7.8l1.9,5.7
			c0,0,17.2-1.9,15.8,4.8l-7.4,2.4l10.3,7.3c0,0,10,74.2,65.6,92.3c35.1,11.4-7.2-85.2-7.2-85.2S432.9,90.5,431.6,90
			S367,51.1,335,95.1"/>
	</g>
</g>
<g id="earL">
	<path class="st1" d="M213.9,370.6c-8.1,1.4-14.9-2-20.7-6.4c-22.7-16.8-32.6-43.9-24.2-70.8c1.2-4,3.1-7.9,5.5-11.3
		c1.8-2.5,4.7-4.8,7.5-5.6c8.1-2.4,21.3,6.3,22.6,14.5c1.1,7.1,0.9,13.6-4.2,19.8c-4.5,5.3-7.6,11.8-11,17.9
		c-1.7,3.2-1.4,6.4,4.2,7.6c3.3-4.9,6.9-10.2,11-16.4c4.7,5.1,3.1,11.1,4.6,16c1.7,5.8,2.7,11.9,3.4,17.9
		C213.3,359.1,216.6,364.3,213.9,370.6z"/>
</g>
<g id="earR">
	<path class="st1" d="M501,355.1c0-1.5,0.1-3.2,0.3-4.9c0-0.6,0.1-1.1,0.1-1.7c0.1-0.6,0.1-1.2,0.2-1.9c1.2-13,4-28.7,6.5-34.3l0,0
		c0,0,0,0,0,0c4.5,1.9,5.7,7.3,9,10.9c1.5,1.7,3.4,3,6.3,3.4c0.1-3,1-6,0-8c-2.2-4.6-4.9-9.2-8.3-13c-7.5-8.5-9.7-17.8-5.9-30.2
		c3.4-2.2,6.7-4.9,10.5-6.8c8.2-4.1,14.5-2.3,19,5.6c11.1,19.5,11.1,39.6,0.7,59.1c-6.2,11.6-14.4,22-27.5,27.1
		c-3.5,1.4-6.9,2.6-10.6,1.2C501,359.9,500.9,357.7,501,355.1z"/>
</g>
<g id="mouth">
	<path class="st0" d="M314.2,422.3c33-0.8,69,3.2,97.5-17C388.2,433,346.2,430.2,314.2,422.3L314.2,422.3z"/>
	<path class="st0" d="M383.9,438.3c-6.1,10.4-23.2,13.7-31.6,4.3C363.5,443.4,373.1,441,383.9,438.3L383.9,438.3z"/>
</g>
<g id="nose">
	<path class="st0" d="M357.1,238.9c0.3,9.3-2.7,23.1-3.7,32.5c-2.8,22.1-8.2,50.3-7.9,72.2c0.2,5.3,0.5,19.1,0.6,24.5l-5.8-7
		c2.5,0.9,5.6,1.6,8.5,2.1c8.8,1.6,18.2,2.3,26.7-1.2c0,0,1.3,2,1.3,2c-10.8,8.6-25.1,10.6-38.7,10.8c0,0-6.3-1.2-6.3-1.2
		c0.6-8.2,1.6-22.2,2.2-30.3c2.4-24.9,9.6-48.7,15.6-72.7c0,0,4.1-15.8,4.1-15.8C354.6,250.3,356.9,243.5,357.1,238.9L357.1,238.9z"
		/>
</g>
<g id="brownL">
	<path class="st0" d="M310.5,243.3c-1.8-0.2-16.8-7.5-18.6-7.7c-17.3-1.3-37-1.2-52.8,5.5c-1.8,0.8-7.6,1-12.1,2.1
		c9.6-13.4,23.4-19.2,33.9-21.2c10.9-2.1,21.9-3.1,32.6-1c2,0.4,9.1,2.2,15,3.8c4.5,1.2,13.2,3.1,15.1,8.4c1.2,3.3-2.6,8.5-2.6,9.2
		C317.5,242.7,313.9,243.6,310.5,243.3z"/>
</g>
<g id="brownR">
	<path class="st0" d="M392.2,239.1c1.8-0.1,17.1-6.7,19-6.8c17.3-0.4,37.1,0.6,52.5,8.1c1.8,0.9,7.6,1.3,12,2.7
		c-9-13.9-22.4-20.3-32.8-22.8c-10.8-2.7-21.7-4.2-32.6-2.6c-2,0.3-9.2,1.7-15.1,3.1c-4.6,1-13.4,2.4-15.5,7.6
		c-1.4,3.2,2.2,8.6,2.1,9.3C385.3,238.1,388.7,239.2,392.2,239.1z"/>
</g>
<g id="eyes">
	<g>
		<path class="st0" d="M307.3,268.6c7.7,1.9,14.7,3.6,23.1,5.6c-1.4-2.8-1.6-4.3-2.5-5.1c-24.3-20.1-58.9-18.7-80.8,3.3
			c-1,1-1.9,2.2-2.2,3.4c-0.3,1.2,0,2.9,0.8,3.8c0.8,0.9,2.7,1.6,3.7,1.2c2.5-1.1,4.8-2.8,7.1-4.2c3-1.8,5.6-4.8,9.8-4
			C266.3,272.6,281.9,260.3,307.3,268.6z"/>
		<path class="st0" d="M263.3,309c-2.8-1.3-5.2-2.4-7.6-3.6c-1.1-3.1,0.8-4.3,3.2-5c0.9-0.3,1.9-0.6,2.8-0.4c14.1,3.7,28,0.4,42-0.5
			c3.1-0.2,6.2,0.1,9.3,0.2c0.1,1.1,0.2,2.2,0.3,3.3c-4.2,1.5-8.3,3.1-13.1,4.9L263.3,309z"/>
		<path class="st0" d="M444.8,267c7.7,1.9,14.7,3.6,23.1,5.6c-1.4-2.8-1.6-4.3-2.5-5.1c-24.3-20.1-58.9-18.7-80.8,3.3
			c-1,1-1.9,2.2-2.2,3.4c-0.3,1.2,0,2.9,0.8,3.8c0.8,0.9,2.7,1.6,3.7,1.2c2.5-1.1,4.8-2.8,7.1-4.2c3-1.8,4.8-2.2,9.8-4
			C403.7,271,419.4,258.6,444.8,267z"/>
		<path class="st0" d="M400.8,307.4c-2.8-1.3-5.2-2.4-7.6-3.6c-1.1-3.1,0.8-4.3,3.2-5c0.9-0.3,1.9-0.6,2.8-0.4
			c14.1,3.7,28,0.4,42-0.5c3.1-0.2,6.2,0.1,9.3,0.2c0.1,1.1,0.2,2.2,0.3,3.3c-4.2,1.5-8.3,3.1-13.1,4.9L400.8,307.4z"/>
	</g>
</g>
<g id="pupil">
	<g>
		<circle class="st0" cx="286.7" cy="282.6" r="19"/>
		<circle class="st0" cx="422.3" cy="280.9" r="19"/>
	</g>
</g>
</svg>
